<?xml version="1.0" encoding="utf-8" standalone="no"?>
<!DOCTYPE svg PUBLIC "-//W3C//DTD SVG 1.1//EN"
  "http://www.w3.org/Graphics/SVG/1.1/DTD/svg11.dtd">
<!-- Created with matplotlib (http://matplotlib.org/) -->
<svg height="369pt" version="1.1" viewBox="0 0 1089 369" width="1089pt" xmlns="http://www.w3.org/2000/svg" xmlns:xlink="http://www.w3.org/1999/xlink">
 <defs>
  <style type="text/css">
*{stroke-linecap:butt;stroke-linejoin:round;}
  </style>
 </defs>
 <g id="figure_1">
  <g id="patch_1">
   <path d="
M0 369
L1089 369
L1089 0
L0 0
z
" style="fill:#ffffff;"/>
  </g>
  <g id="axes_1">
   <g id="patch_2">
    <path d="
M136.125 332.1
L980.1 332.1
L980.1 36.9
L136.125 36.9
z
" style="fill:#ffffff;"/>
   </g>
   <g id="line2d_1">
    <path clip-path="url(#pdae6ac7bf1)" d="
M136.125 319.366
L137.697 319.366
L137.85 49.6341
L138.509 49.6341
L138.661 319.366
L139.321 319.366
L139.473 49.6341
L140.132 49.6341
L140.284 319.366
L140.944 319.366
L141.096 49.6341
L141.755 49.6341
L141.907 319.366
L142.567 319.366
L142.719 49.6341
L143.378 49.6341
L143.531 319.366
L144.19 319.366
L144.342 49.6341
L145.001 49.6341
L145.154 319.366
L145.813 319.366
L145.965 49.6341
L146.625 49.6341
L146.777 319.366
L147.436 319.366
L147.588 49.6341
L148.248 49.6341
L148.4 319.366
L170.971 319.366
L171.124 290.425
L173 290.425
L173.153 289.267
L175.029 289.267
L175.181 288.109
L177.058 288.109
L177.21 286.952
L179.087 286.952
L179.239 285.794
L181.116 285.794
L181.268 284.636
L183.145 284.636
L183.297 283.479
L185.174 283.479
L185.326 282.321
L187.203 282.321
L187.355 281.164
L189.232 281.164
L189.384 280.006
L191.261 280.006
L191.413 278.848
L193.289 278.848
L193.442 277.691
L195.318 277.691
L195.471 276.533
L197.347 276.533
L197.499 275.375
L199.376 275.375
L199.528 274.218
L201.405 274.218
L201.557 273.06
L203.434 273.06
L203.586 271.902
L205.463 271.902
L205.615 270.745
L207.492 270.745
L207.644 269.587
L209.521 269.587
L209.673 268.429
L211.55 268.429
L211.702 267.272
L213.579 267.272
L213.731 266.114
L215.607 266.114
L215.76 264.956
L217.636 264.956
L217.789 263.799
L219.665 263.799
L219.817 262.641
L221.694 262.641
L221.846 261.484
L223.723 261.484
L223.875 260.326
L225.752 260.326
L225.904 259.168
L227.781 259.168
L227.933 258.011
L229.81 258.011
L229.962 256.853
L231.839 256.853
L231.991 255.695
L233.462 255.695
L233.614 254.538
L235.491 254.538
L235.643 253.38
L237.52 253.38
L237.672 252.222
L239.549 252.222
L239.701 251.065
L241.577 251.065
L241.73 249.907
L243.606 249.907
L243.759 248.749
L245.635 248.749
L245.787 247.592
L247.664 247.592
L247.816 246.434
L249.693 246.434
L249.845 245.276
L251.722 245.276
L251.874 244.119
L253.751 244.119
L253.903 242.961
L255.78 242.961
L255.932 241.804
L257.809 241.804
L257.961 240.646
L259.838 240.646
L259.99 239.488
L261.867 239.488
L262.019 238.331
L263.895 238.331
L264.048 237.173
L265.924 237.173
L266.077 236.015
L267.953 236.015
L268.105 234.858
L269.982 234.858
L270.134 233.7
L272.011 233.7
L272.163 232.542
L274.04 232.542
L274.192 231.385
L276.069 231.385
L276.221 230.227
L278.098 230.227
L278.25 229.069
L280.127 229.069
L280.279 227.912
L282.156 227.912
L282.308 226.754
L284.185 226.754
L284.337 225.596
L286.213 225.596
L286.366 224.439
L288.242 224.439
L288.395 223.281
L290.271 223.281
L290.423 222.124
L292.3 222.124
L292.452 220.966
L293.923 220.966
L294.075 219.808
L295.952 219.808
L296.104 218.651
L297.981 218.651
L298.133 217.493
L300.01 217.493
L300.162 216.335
L302.039 216.335
L302.191 215.178
L304.068 215.178
L304.22 214.02
L306.097 214.02
L306.249 212.862
L308.126 212.862
L308.278 211.705
L310.155 211.705
L310.307 210.547
L312.183 210.547
L312.336 209.389
L314.212 209.389
L314.365 208.232
L316.241 208.232
L316.393 207.074
L318.27 207.074
L318.422 205.916
L320.299 205.916
L320.451 204.759
L322.328 204.759
L322.48 203.601
L324.357 203.601
L324.509 202.444
L326.386 202.444
L326.538 201.286
L328.415 201.286
L328.567 200.128
L330.444 200.128
L330.596 198.971
L332.473 198.971
L332.625 197.813
L334.501 197.813
L334.654 196.655
L336.53 196.655
L336.683 195.498
L338.559 195.498
L338.711 194.34
L340.588 194.34
L340.74 193.182
L342.617 193.182
L342.769 192.025
L344.646 192.025
L344.798 190.867
L346.675 190.867
L346.827 189.709
L348.704 189.709
L348.856 188.552
L350.733 188.552
L350.885 187.394
L352.762 187.394
L352.914 186.236
L354.791 186.236
L354.943 185.079
L356.414 185.079
L356.566 183.921
L358.443 183.921
L358.595 182.764
L360.472 182.764
L360.624 181.606
L362.5 181.606
L362.653 180.448
L364.529 180.448
L364.681 179.291
L366.558 179.291
L366.71 178.133
L368.587 178.133
L368.739 176.975
L370.616 176.975
L370.768 175.818
L372.645 175.818
L372.797 174.66
L374.674 174.66
L374.826 173.502
L376.703 173.502
L376.855 172.345
L378.732 172.345
L378.884 171.187
L380.761 171.187
L380.913 170.029
L382.789 170.029
L382.942 168.872
L384.818 168.872
L384.971 167.714
L386.847 167.714
L386.999 166.556
L388.876 166.556
L389.028 165.399
L390.905 165.399
L391.057 164.241
L392.934 164.241
L393.086 163.084
L394.963 163.084
L395.115 161.926
L396.992 161.926
L397.144 160.768
L399.021 160.768
L399.173 159.611
L401.05 159.611
L401.202 158.453
L403.079 158.453
L403.231 157.295
L405.107 157.295
L405.26 156.138
L407.136 156.138
L407.289 154.98
L409.165 154.98
L409.317 153.822
L411.194 153.822
L411.346 152.665
L413.223 152.665
L413.375 151.507
L415.252 151.507
L415.404 150.349
L416.875 150.349
L417.027 149.192
L418.904 149.192
L419.056 148.034
L420.933 148.034
L421.085 146.876
L422.962 146.876
L423.114 145.719
L424.991 145.719
L425.143 144.561
L427.02 144.561
L427.172 143.404
L429.049 143.404
L429.201 142.246
L431.077 142.246
L431.23 141.088
L433.106 141.088
L433.259 139.931
L435.135 139.931
L435.287 138.773
L437.164 138.773
L437.316 137.615
L439.193 137.615
L439.345 136.458
L441.222 136.458
L441.374 135.3
L443.251 135.3
L443.403 134.142
L445.28 134.142
L445.432 132.985
L447.309 132.985
L447.461 131.827
L449.338 131.827
L449.49 130.669
L451.367 130.669
L451.519 129.512
L453.395 129.512
L453.548 128.354
L455.424 128.354
L455.577 127.196
L457.453 127.196
L457.605 126.039
L459.482 126.039
L459.634 124.881
L461.511 124.881
L461.663 123.724
L463.54 123.724
L463.692 122.566
L465.569 122.566
L465.721 121.408
L467.598 121.408
L467.75 120.251
L469.627 120.251
L469.779 119.093
L471.656 119.093
L471.808 117.935
L473.685 117.935
L473.837 116.778
L475.713 116.778
L475.866 115.62
L477.742 115.62
L477.895 114.462
L479.366 114.462
L479.518 113.305
L481.394 113.305
L481.547 112.147
L483.423 112.147
L483.575 110.989
L485.452 110.989
L485.604 109.832
L487.481 109.832
L487.633 108.674
L489.51 108.674
L489.662 107.516
L491.539 107.516
L491.691 106.359
L493.568 106.359
L493.72 105.201
L495.597 105.201
L495.749 104.044
L497.626 104.044
L497.778 102.886
L499.655 102.886
L499.807 101.728
L501.683 101.728
L501.836 100.571
L503.712 100.571
L503.865 99.4129
L505.741 99.4129
L505.893 98.2553
L507.77 98.2553
L507.922 97.0976
L509.799 97.0976
L509.951 95.94
L511.828 95.94
L511.98 94.7824
L513.857 94.7824
L514.009 93.6247
L515.886 93.6247
L516.038 92.4671
L517.915 92.4671
L518.067 91.3094
L519.944 91.3094
L520.096 90.1518
L521.973 90.1518
L522.125 88.9941
L524.001 88.9941
L524.154 87.8365
L526.03 87.8365
L526.183 86.6788
L528.059 86.6788
L528.211 85.5212
L530.088 85.5212
L530.24 84.3635
L532.117 84.3635
L532.269 83.2059
L534.146 83.2059
L534.298 82.0482
L536.175 82.0482
L536.327 80.8906
L538.204 80.8906
L538.356 79.7329
L539.827 79.7329
L539.979 183.921
L558.087 183.921
L558.239 319.366
L559.71 319.366
L559.862 49.6341
L560.928 49.6341
L561.08 319.366
L561.739 319.366
L561.891 49.6341
L562.957 49.6341
L563.109 319.366
L563.768 319.366
L563.92 49.6341
L564.985 49.6341
L565.138 319.366
L565.797 319.366
L565.949 49.6341
L567.014 49.6341
L567.167 319.366
L567.826 319.366
L567.978 49.6341
L569.043 49.6341
L569.195 319.366
L569.855 319.366
L570.007 49.6341
L571.072 49.6341
L571.224 319.366
L571.884 319.366
L572.036 49.6341
L573.101 49.6341
L573.253 319.366
L573.913 319.366
L574.065 49.6341
L592.984 49.6341
L593.137 198.971
L593.39 198.971
L593.542 205.916
L593.796 205.916
L593.948 190.867
L594.202 190.867
L594.354 197.813
L594.607 197.813
L594.76 176.975
L595.419 176.975
L595.571 180.448
L595.825 180.448
L595.977 185.079
L596.231 185.079
L596.383 170.029
L596.636 170.029
L596.789 202.444
L597.042 202.444
L597.194 188.552
L597.448 188.552
L597.6 214.02
L597.854 214.02
L598.006 183.921
L598.26 183.921
L598.412 173.502
L598.665 173.502
L598.817 179.291
L599.071 179.291
L599.223 198.971
L599.477 198.971
L599.629 187.394
L599.883 187.394
L600.035 197.813
L600.288 197.813
L600.441 207.074
L600.694 207.074
L600.846 181.606
L601.1 181.606
L601.252 182.764
L601.506 182.764
L601.658 198.971
L602.317 198.971
L602.47 201.286
L602.723 201.286
L602.875 215.178
L603.129 215.178
L603.281 208.232
L603.535 208.232
L603.687 190.867
L603.94 190.867
L604.093 192.025
L604.346 192.025
L604.498 215.178
L604.752 215.178
L604.904 185.079
L605.158 185.079
L605.31 180.448
L605.564 180.448
L605.716 181.606
L605.969 181.606
L606.122 180.448
L606.375 180.448
L606.527 207.074
L606.781 207.074
L606.933 172.345
L607.187 172.345
L607.339 178.133
L607.592 178.133
L607.745 174.66
L607.998 174.66
L608.15 202.444
L608.404 202.444
L608.556 207.074
L608.81 207.074
L608.962 180.448
L609.216 180.448
L609.368 198.971
L609.621 198.971
L609.774 174.66
L610.027 174.66
L610.179 205.916
L610.433 205.916
L610.585 195.498
L610.839 195.498
L610.991 176.975
L611.245 176.975
L611.397 208.232
L611.65 208.232
L611.802 210.547
L612.056 210.547
L612.208 200.128
L612.462 200.128
L612.614 201.286
L612.868 201.286
L613.02 209.389
L613.273 209.389
L613.426 208.232
L613.679 208.232
L613.831 186.236
L614.085 186.236
L614.237 210.547
L614.491 210.547
L614.643 209.389
L614.897 209.389
L615.049 178.133
L615.708 178.133
L615.86 204.759
L616.114 204.759
L616.266 187.394
L616.52 187.394
L616.672 182.764
L616.925 182.764
L617.078 202.444
L617.331 202.444
L617.483 208.232
L617.737 208.232
L617.889 181.606
L618.143 181.606
L618.295 194.34
L618.549 194.34
L618.701 183.921
L619.36 183.921
L619.512 208.232
L619.766 208.232
L619.918 186.236
L620.172 186.236
L620.324 183.921
L620.578 183.921
L620.73 212.862
L620.983 212.862
L621.135 209.389
L621.389 209.389
L621.541 189.709
L621.795 189.709
L621.947 192.025
L622.201 192.025
L622.353 176.975
L622.606 176.975
L622.759 185.079
L623.012 185.079
L623.164 197.813
L623.418 197.813
L623.57 201.286
L623.824 201.286
L623.976 212.862
L624.23 212.862
L624.382 195.498
L624.635 195.498
L624.787 216.335
L625.041 216.335
L625.193 181.606
L625.447 181.606
L625.599 172.345
L625.853 172.345
L626.005 200.128
L626.258 200.128
L626.411 216.335
L626.664 216.335
L626.816 204.759
L627.07 204.759
L627.222 170.029
L627.476 170.029
L627.628 200.128
L627.882 200.128
L628.034 190.867
L628.287 190.867
L628.44 198.971
L628.693 198.971
L628.845 207.074
L629.099 207.074
L629.251 208.232
L629.505 208.232
L629.657 182.764
L629.91 182.764
L630.063 173.502
L630.316 173.502
L630.468 182.764
L630.722 182.764
L630.874 187.394
L631.128 187.394
L631.28 179.291
L631.534 179.291
L631.686 170.029
L631.939 170.029
L632.092 195.498
L632.345 195.498
L632.497 216.335
L633.157 216.335
L633.309 196.655
L633.563 196.655
L633.715 204.759
L633.968 204.759
L634.12 182.764
L634.374 182.764
L634.526 186.236
L634.78 186.236
L634.932 185.079
L635.186 185.079
L635.338 186.236
L635.591 186.236
L635.744 181.606
L635.997 181.606
L636.149 196.655
L636.403 196.655
L636.555 194.34
L636.809 194.34
L636.961 175.818
L637.215 175.818
L637.367 173.502
L637.62 173.502
L637.772 202.444
L638.026 202.444
L638.178 179.291
L638.432 179.291
L638.584 194.34
L638.838 194.34
L638.99 182.764
L639.243 182.764
L639.396 194.34
L639.649 194.34
L639.801 179.291
L640.055 179.291
L640.207 190.867
L640.461 190.867
L640.613 201.286
L640.867 201.286
L641.019 207.074
L641.272 207.074
L641.425 212.862
L641.678 212.862
L641.83 183.921
L642.084 183.921
L642.236 190.867
L642.49 190.867
L642.642 214.02
L642.895 214.02
L643.048 204.759
L643.301 204.759
L643.453 174.66
L643.707 174.66
L643.859 195.498
L644.113 195.498
L644.265 216.335
L644.519 216.335
L644.671 205.916
L644.924 205.916
L645.077 178.133
L645.33 178.133
L645.482 189.709
L645.736 189.709
L645.888 208.232
L646.142 208.232
L646.294 187.394
L646.548 187.394
L646.7 204.759
L646.953 204.759
L647.105 172.345
L647.359 172.345
L647.511 185.079
L647.765 185.079
L647.917 201.286
L648.171 201.286
L648.323 212.862
L648.576 212.862
L648.729 197.813
L648.982 197.813
L649.134 210.547
L649.794 210.547
L649.946 195.498
L650.2 195.498
L650.352 205.916
L650.605 205.916
L650.758 175.818
L651.011 175.818
L651.163 172.345
L651.417 172.345
L651.569 194.34
L651.823 194.34
L651.975 189.709
L652.228 189.709
L652.381 174.66
L652.634 174.66
L652.786 211.705
L653.04 211.705
L653.192 216.335
L653.446 216.335
L653.598 194.34
L653.852 194.34
L654.004 178.133
L654.257 178.133
L654.41 175.818
L654.663 175.818
L654.815 210.547
L655.069 210.547
L655.221 173.502
L655.475 173.502
L655.627 190.867
L655.881 190.867
L656.033 198.971
L656.286 198.971
L656.438 176.975
L656.692 176.975
L656.844 197.813
L657.098 197.813
L657.25 176.975
L657.504 176.975
L657.656 202.444
L657.909 202.444
L658.062 183.921
L658.315 183.921
L658.467 198.971
L658.721 198.971
L658.873 197.813
L659.127 197.813
L659.279 216.335
L659.533 216.335
L659.685 211.705
L659.938 211.705
L660.09 182.764
L660.344 182.764
L660.496 215.178
L660.75 215.178
L660.902 182.764
L661.156 182.764
L661.308 212.862
L661.561 212.862
L661.714 211.705
L661.967 211.705
L662.119 189.709
L662.373 189.709
L662.525 205.916
L662.779 205.916
L662.931 216.335
L663.185 216.335
L663.337 198.971
L663.59 198.971
L663.743 212.862
L663.996 212.862
L664.148 197.813
L664.402 197.813
L664.554 203.601
L664.808 203.601
L664.96 174.66
L665.213 174.66
L665.366 197.813
L665.619 197.813
L665.771 183.921
L666.025 183.921
L666.177 176.975
L666.431 176.975
L666.583 201.286
L667.242 201.286
L667.395 178.133
L667.648 178.133
L667.8 192.025
L668.054 192.025
L668.206 187.394
L668.46 187.394
L668.612 204.759
L668.866 204.759
L669.018 200.128
L669.271 200.128
L669.423 189.709
L669.677 189.709
L669.829 171.187
L670.083 171.187
L670.235 196.655
L670.489 196.655
L670.641 194.34
L670.894 194.34
L671.047 214.02
L671.3 214.02
L671.452 173.502
L671.706 173.502
L671.858 214.02
L672.112 214.02
L672.264 170.029
L672.518 170.029
L672.67 178.133
L672.923 178.133
L673.075 182.764
L674.141 182.764
L674.293 205.916
L674.546 205.916
L674.699 190.867
L674.952 190.867
L675.104 215.178
L675.358 215.178
L675.51 182.764
L675.764 182.764
L675.916 209.389
L676.17 209.389
L676.322 203.601
L676.575 203.601
L676.728 210.547
L676.981 210.547
L677.133 173.502
L677.387 173.502
L677.539 214.02
L677.793 214.02
L677.945 186.236
L678.198 186.236
L678.351 214.02
L678.604 214.02
L678.756 188.552
L679.01 188.552
L679.162 193.182
L679.416 193.182
L679.568 190.867
L679.822 190.867
L679.974 215.178
L680.227 215.178
L680.38 179.291
L680.633 179.291
L680.785 189.709
L681.039 189.709
L681.191 180.448
L681.445 180.448
L681.597 174.66
L681.851 174.66
L682.003 216.335
L682.256 216.335
L682.408 178.133
L682.662 178.133
L682.814 203.601
L683.068 203.601
L683.22 188.552
L683.474 188.552
L683.626 180.448
L683.879 180.448
L684.032 182.764
L684.285 182.764
L684.437 203.601
L684.691 203.601
L684.843 174.66
L685.097 174.66
L685.249 189.709
L685.503 189.709
L685.655 176.975
L685.908 176.975
L686.061 185.079
L686.314 185.079
L686.466 178.133
L686.72 178.133
L686.872 196.655
L687.126 196.655
L687.278 172.345
L687.531 172.345
L687.684 189.709
L687.937 189.709
L688.089 205.916
L688.343 205.916
L688.495 210.547
L688.749 210.547
L688.901 198.971
L689.155 198.971
L689.307 210.547
L689.56 210.547
L689.713 172.345
L689.966 172.345
L690.118 204.759
L690.372 204.759
L690.524 207.074
L690.778 207.074
L690.93 194.34
L691.184 194.34
L691.336 210.547
L691.589 210.547
L691.741 194.34
L691.995 194.34
L692.147 204.759
L692.401 204.759
L692.553 208.232
L692.807 208.232
L692.959 195.498
L693.212 195.498
L693.365 180.448
L693.618 180.448
L693.77 183.921
L694.024 183.921
L694.176 215.178
L694.43 215.178
L694.582 205.916
L694.836 205.916
L694.988 189.709
L695.241 189.709
L695.393 207.074
L695.647 207.074
L695.799 209.389
L696.053 209.389
L696.205 171.187
L696.459 171.187
L696.611 208.232
L696.864 208.232
L697.017 180.448
L697.27 180.448
L697.422 197.813
L697.676 197.813
L697.828 201.286
L698.082 201.286
L698.234 192.025
L698.488 192.025
L698.64 178.133
L698.893 178.133
L699.046 180.448
L699.299 180.448
L699.451 210.547
L699.705 210.547
L699.857 170.029
L700.111 170.029
L700.263 182.764
L700.516 182.764
L700.669 195.498
L700.922 195.498
L701.074 201.286
L701.328 201.286
L701.48 190.867
L701.734 190.867
L701.886 183.921
L702.14 183.921
L702.292 208.232
L702.545 208.232
L702.698 188.552
L702.951 188.552
L703.103 186.236
L703.357 186.236
L703.509 200.128
L703.763 200.128
L703.915 210.547
L704.169 210.547
L704.321 198.971
L704.574 198.971
L704.726 208.232
L704.98 208.232
L705.132 211.705
L705.386 211.705
L705.538 201.286
L705.792 201.286
L705.944 190.867
L706.197 190.867
L706.35 170.029
L706.603 170.029
L706.755 192.025
L707.009 192.025
L707.161 185.079
L707.415 185.079
L707.567 196.655
L707.821 196.655
L707.973 204.759
L708.226 204.759
L708.378 178.133
L708.632 178.133
L708.784 185.079
L709.038 185.079
L709.19 197.813
L709.444 197.813
L709.596 170.029
L709.849 170.029
L710.002 193.182
L710.255 193.182
L710.407 180.448
L710.661 180.448
L710.813 183.921
L711.067 183.921
L711.219 190.867
L711.473 190.867
L711.625 174.66
L711.878 174.66
L712.031 205.916
L712.284 205.916
L712.436 214.02
L712.69 214.02
L712.842 201.286
L713.096 201.286
L713.248 183.921
L713.501 183.921
L713.654 187.394
L713.907 187.394
L714.059 209.389
L714.313 209.389
L714.465 179.291
L714.719 179.291
L714.871 176.975
L715.125 176.975
L715.277 174.66
L715.53 174.66
L715.683 180.448
L715.936 180.448
L716.088 176.975
L716.342 176.975
L716.494 212.862
L716.748 212.862
L716.9 176.975
L717.154 176.975
L717.306 215.178
L717.559 215.178
L717.711 189.709
L717.965 189.709
L718.117 210.547
L718.371 210.547
L718.523 190.867
L718.777 190.867
L718.929 193.182
L719.182 193.182
L719.335 198.971
L719.588 198.971
L719.74 195.498
L719.994 195.498
L720.146 208.232
L720.4 208.232
L720.552 186.236
L720.806 186.236
L720.958 208.232
L721.211 208.232
L721.364 173.502
L721.617 173.502
L721.769 185.079
L722.023 185.079
L722.175 174.66
L722.429 174.66
L722.581 175.818
L722.834 175.818
L722.987 182.764
L723.24 182.764
L723.392 171.187
L723.646 171.187
L723.798 196.655
L724.052 196.655
L724.204 216.335
L724.458 216.335
L724.61 215.178
L724.863 215.178
L725.016 197.813
L725.269 197.813
L725.421 200.128
L725.675 200.128
L725.827 178.133
L726.081 178.133
L726.233 171.187
L726.487 171.187
L726.639 180.448
L726.892 180.448
L727.044 190.867
L727.298 190.867
L727.45 214.02
L727.704 214.02
L727.856 173.502
L728.11 173.502
L728.262 174.66
L728.515 174.66
L728.668 192.025
L728.921 192.025
L729.073 170.029
L729.327 170.029
L729.479 181.606
L729.733 181.606
L729.885 189.709
L730.139 189.709
L730.291 200.128
L730.544 200.128
L730.696 179.291
L730.95 179.291
L731.102 185.079
L731.356 185.079
L731.508 183.921
L731.762 183.921
L731.914 215.178
L732.167 215.178
L732.32 180.448
L732.573 180.448
L732.725 214.02
L732.979 214.02
L733.131 195.498
L733.385 195.498
L733.537 209.389
L733.791 209.389
L733.943 181.606
L734.196 181.606
L734.349 209.389
L734.602 209.389
L734.754 179.291
L735.008 179.291
L735.16 189.709
L735.414 189.709
L735.566 203.601
L736.225 203.601
L736.377 195.498
L736.631 195.498
L736.783 202.444
L737.037 202.444
L737.189 189.709
L737.443 189.709
L737.595 215.178
L737.848 215.178
L738.001 180.448
L738.254 180.448
L738.406 186.236
L738.66 186.236
L738.812 173.502
L739.066 173.502
L739.218 196.655
L739.472 196.655
L739.624 183.921
L739.877 183.921
L740.029 194.34
L740.283 194.34
L740.435 187.394
L740.689 187.394
L740.841 197.813
L741.095 197.813
L741.247 174.66
L741.5 174.66
L741.653 200.128
L741.906 200.128
L742.058 201.286
L742.312 201.286
L742.464 176.975
L742.718 176.975
L742.87 194.34
L743.124 194.34
L743.276 214.02
L743.529 214.02
L743.681 205.916
L743.935 205.916
L744.087 194.34
L744.341 194.34
L744.493 186.236
L744.747 186.236
L744.899 196.655
L745.152 196.655
L745.305 185.079
L745.558 185.079
L745.71 198.971
L745.964 198.971
L746.116 214.02
L746.37 214.02
L746.522 203.601
L746.776 203.601
L746.928 179.291
L747.181 179.291
L747.334 202.444
L747.587 202.444
L747.739 173.502
L747.993 173.502
L748.145 209.389
L748.399 209.389
L748.551 196.655
L748.804 196.655
L748.957 204.759
L749.21 204.759
L749.362 179.291
L749.616 179.291
L749.768 172.345
L750.022 172.345
L750.174 197.813
L750.428 197.813
L750.58 216.335
L750.833 216.335
L750.986 212.862
L751.239 212.862
L751.391 188.552
L751.645 188.552
L751.797 176.975
L752.051 176.975
L752.203 195.498
L752.457 195.498
L752.609 214.02
L752.862 214.02
L753.014 192.025
L753.268 192.025
L753.42 174.66
L753.674 174.66
L753.826 216.335
L754.08 216.335
L754.232 195.498
L754.485 195.498
L754.638 181.606
L754.891 181.606
L755.043 212.862
L755.297 212.862
L755.449 193.182
L755.703 193.182
L755.855 181.606
L756.109 181.606
L756.261 198.971
L756.514 198.971
L756.667 201.286
L756.92 201.286
L757.072 211.705
L757.326 211.705
L757.478 182.764
L757.732 182.764
L757.884 194.34
L758.137 194.34
L758.29 200.128
L758.543 200.128
L758.695 181.606
L758.949 181.606
L759.101 182.764
L759.355 182.764
L759.507 183.921
L759.761 183.921
L759.913 197.813
L760.166 197.813
L760.319 204.759
L760.572 204.759
L760.724 207.074
L760.978 207.074
L761.13 186.236
L761.384 186.236
L761.536 187.394
L761.79 187.394
L761.942 180.448
L762.195 180.448
L762.347 178.133
L762.601 178.133
L762.753 180.448
L763.007 180.448
L763.159 216.335
L763.413 216.335
L763.565 187.394
L763.818 187.394
L763.971 208.232
L764.224 208.232
L764.376 201.286
L764.63 201.286
L764.782 210.547
L765.036 210.547
L765.188 207.074
L765.442 207.074
L765.594 185.079
L765.847 185.079
L765.999 187.394
L766.253 187.394
L766.405 197.813
L766.659 197.813
L766.811 216.335
L767.065 216.335
L767.217 208.232
L767.47 208.232
L767.623 170.029
L767.876 170.029
L768.028 178.133
L768.282 178.133
L768.434 210.547
L768.688 210.547
L768.84 208.232
L769.094 208.232
L769.246 170.029
L769.499 170.029
L769.652 175.818
L769.905 175.818
L770.057 214.02
L770.311 214.02
L770.463 186.236
L770.717 186.236
L770.869 178.133
L771.122 178.133
L771.275 180.448
L771.528 180.448
L771.68 207.074
L771.934 207.074
L772.086 180.448
L772.34 180.448
L772.492 186.236
L772.746 186.236
L772.898 183.921
L773.151 183.921
L773.304 209.389
L773.557 209.389
L773.709 212.862
L773.963 212.862
L774.115 182.764
L774.369 182.764
L774.521 198.971
L774.775 198.971
L774.927 195.498
L775.18 195.498
L775.332 176.975
L775.586 176.975
L775.738 212.862
L775.992 212.862
L776.144 178.133
L776.398 178.133
L776.55 190.867
L776.803 190.867
L776.956 183.921
L777.209 183.921
L777.361 208.232
L777.615 208.232
L777.767 195.498
L778.021 195.498
L778.173 193.182
L778.427 193.182
L778.579 182.764
L778.832 182.764
L778.984 215.178
L779.238 215.178
L779.39 214.02
L779.644 214.02
L779.796 205.916
L780.05 205.916
L780.202 181.606
L780.455 181.606
L780.608 172.345
L780.861 172.345
L781.013 190.867
L781.267 190.867
L781.419 196.655
L781.673 196.655
L781.825 201.286
L782.079 201.286
L782.231 195.498
L782.484 195.498
L782.637 198.971
L782.89 198.971
L783.042 212.862
L783.296 212.862
L783.448 201.286
L783.702 201.286
L783.854 197.813
L784.107 197.813
L784.26 207.074
L784.513 207.074
L784.665 185.079
L784.919 185.079
L785.071 212.862
L785.325 212.862
L785.477 202.444
L785.731 202.444
L785.883 190.867
L786.136 190.867
L786.289 215.178
L786.542 215.178
L786.694 171.187
L786.948 171.187
L787.1 175.818
L787.354 175.818
L787.506 200.128
L787.76 200.128
L787.912 172.345
L788.165 172.345
L788.317 204.759
L788.571 204.759
L788.723 200.128
L788.977 200.128
L789.129 174.66
L789.383 174.66
L789.535 203.601
L789.788 203.601
L789.941 214.02
L790.194 214.02
L790.346 173.502
L790.6 173.502
L790.752 216.335
L791.006 216.335
L791.158 210.547
L791.412 210.547
L791.564 180.448
L791.817 180.448
L791.97 196.655
L792.223 196.655
L792.375 200.128
L792.629 200.128
L792.781 192.025
L793.035 192.025
L793.187 212.862
L793.44 212.862
L793.593 192.025
L793.846 192.025
L793.998 176.975
L794.252 176.975
L794.404 209.389
L794.658 209.389
L794.81 180.448
L795.064 180.448
L795.216 189.709
L795.469 189.709
L795.622 185.079
L795.875 185.079
L796.027 171.187
L796.281 171.187
L796.433 172.345
L796.687 172.345
L796.839 196.655
L797.092 196.655
L797.245 203.601
L797.498 203.601
L797.65 208.232
L797.904 208.232
L798.056 207.074
L798.31 207.074
L798.462 170.029
L798.716 170.029
L798.868 204.759
L799.121 204.759
L799.274 203.601
L799.527 203.601
L799.679 178.133
L799.933 178.133
L800.085 192.025
L800.339 192.025
L800.491 186.236
L800.745 186.236
L800.897 171.187
L801.15 171.187
L801.302 180.448
L801.556 180.448
L801.708 215.178
L801.962 215.178
L802.114 193.182
L802.368 193.182
L802.52 196.655
L802.773 196.655
L802.926 181.606
L803.179 181.606
L803.331 203.601
L803.585 203.601
L803.737 202.444
L803.991 202.444
L804.143 203.601
L804.397 203.601
L804.549 171.187
L804.802 171.187
L804.955 186.236
L805.208 186.236
L805.36 178.133
L805.614 178.133
L805.766 212.862
L806.02 212.862
L806.172 193.182
L806.425 193.182
L806.578 207.074
L806.831 207.074
L806.983 202.444
L807.237 202.444
L807.389 173.502
L807.643 173.502
L807.795 174.66
L808.049 174.66
L808.201 195.498
L808.454 195.498
L808.607 173.502
L808.86 173.502
L809.012 182.764
L809.266 182.764
L809.418 205.916
L809.672 205.916
L809.824 179.291
L810.078 179.291
L810.23 211.705
L810.483 211.705
L810.635 204.759
L810.889 204.759
L811.041 188.552
L811.295 188.552
L811.447 182.764
L811.701 182.764
L811.853 186.236
L812.106 186.236
L812.259 174.66
L812.512 174.66
L812.664 187.394
L812.918 187.394
L813.07 196.655
L813.324 196.655
L813.476 198.971
L813.73 198.971
L813.882 181.606
L814.135 181.606
L814.287 200.128
L814.541 200.128
L814.693 173.502
L814.947 173.502
L815.099 196.655
L815.353 196.655
L815.505 170.029
L815.758 170.029
L815.911 197.813
L816.164 197.813
L816.316 209.389
L816.57 209.389
L816.722 185.079
L816.976 185.079
L817.128 203.601
L817.382 203.601
L817.534 202.444
L817.787 202.444
L817.94 210.547
L818.193 210.547
L818.345 175.818
L818.599 175.818
L818.751 209.389
L819.005 209.389
L819.157 179.291
L819.41 179.291
L819.563 170.029
L819.816 170.029
L819.968 192.025
L820.222 192.025
L820.374 201.286
L820.628 201.286
L820.78 193.182
L821.034 193.182
L821.186 172.345
L821.439 172.345
L821.592 182.764
L821.845 182.764
L821.997 192.025
L822.251 192.025
L822.403 203.601
L822.657 203.601
L822.809 200.128
L823.063 200.128
L823.215 178.133
L823.468 178.133
L823.62 195.498
L823.874 195.498
L824.026 181.606
L824.28 181.606
L824.432 185.079
L824.686 185.079
L824.838 197.813
L825.091 197.813
L825.244 178.133
L825.497 178.133
L825.649 176.975
L825.903 176.975
L826.055 209.389
L826.309 209.389
L826.461 204.759
L826.715 204.759
L826.867 188.552
L827.12 188.552
L827.273 173.502
L827.526 173.502
L827.678 196.655
L827.932 196.655
L828.084 183.921
L828.338 183.921
L828.49 188.552
L828.743 188.552
L828.896 215.178
L829.149 215.178
L829.301 170.029
L829.555 170.029
L829.707 216.335
L829.961 216.335
L830.113 185.079
L830.367 185.079
L830.519 171.187
L830.772 171.187
L830.925 215.178
L831.178 215.178
L831.33 216.335
L831.584 216.335
L831.736 201.286
L831.99 201.286
L832.142 205.916
L832.395 205.916
L832.548 179.291
L832.801 179.291
L832.953 203.601
L833.207 203.601
L833.359 181.606
L833.613 181.606
L833.765 196.655
L834.019 196.655
L834.171 212.862
L834.424 212.862
L834.577 205.916
L834.83 205.916
L834.982 192.025
L835.236 192.025
L835.388 194.34
L835.642 194.34
L835.794 193.182
L836.048 193.182
L836.2 190.867
L836.453 190.867
L836.605 210.547
L836.859 210.547
L837.011 201.286
L837.265 201.286
L837.417 202.444
L837.671 202.444
L837.823 175.818
L838.076 175.818
L838.229 211.705
L838.482 211.705
L838.634 175.818
L838.888 175.818
L839.04 179.291
L839.294 179.291
L839.446 190.867
L839.7 190.867
L839.852 172.345
L840.105 172.345
L840.258 203.601
L840.511 203.601
L840.663 210.547
L840.917 210.547
L841.069 207.074
L841.323 207.074
L841.475 170.029
L841.728 170.029
L841.881 176.975
L842.134 176.975
L842.286 210.547
L842.54 210.547
L842.692 189.709
L842.946 189.709
L843.098 208.232
L843.352 208.232
L843.504 215.178
L843.757 215.178
L843.91 190.867
L844.163 190.867
L844.315 175.818
L844.569 175.818
L844.721 208.232
L844.975 208.232
L845.127 207.074
L845.381 207.074
L845.533 170.029
L845.786 170.029
L845.938 172.345
L846.598 172.345
L846.75 195.498
L847.004 195.498
L847.156 210.547
L847.409 210.547
L847.562 201.286
L847.815 201.286
L847.967 212.862
L848.221 212.862
L848.373 190.867
L848.627 190.867
L848.779 200.128
L849.033 200.128
L849.185 193.182
L849.438 193.182
L849.59 207.074
L849.844 207.074
L849.996 204.759
L850.25 204.759
L850.402 209.389
L850.656 209.389
L850.808 186.236
L851.061 186.236
L851.214 182.764
L851.467 182.764
L851.619 185.079
L851.873 185.079
L852.025 209.389
L852.279 209.389
L852.431 175.818
L852.685 175.818
L852.837 178.133
L853.09 178.133
L853.243 171.187
L853.496 171.187
L853.648 204.759
L853.902 204.759
L854.054 182.764
L854.308 182.764
L854.46 173.502
L854.713 173.502
L854.866 176.975
L855.119 176.975
L855.271 214.02
L855.525 214.02
L855.677 202.444
L855.931 202.444
L856.083 211.705
L856.337 211.705
L856.489 187.394
L856.742 187.394
L856.895 170.029
L857.554 170.029
L857.706 208.232
L857.96 208.232
L858.112 186.236
L858.366 186.236
L858.518 193.182
L858.771 193.182
L858.923 188.552
L859.177 188.552
L859.329 195.498
L859.583 195.498
L859.735 185.079
L859.989 185.079
L860.141 182.764
L860.394 182.764
L860.547 203.601
L861.206 203.601
L861.358 212.862
L861.612 212.862
L861.764 209.389
L862.018 209.389
L862.17 208.232
L862.423 208.232
L862.576 180.448
L862.829 180.448
L862.981 189.709
L863.235 189.709
L863.387 178.133
L863.641 178.133
L863.793 180.448
L864.046 180.448
L864.199 203.601
L864.452 203.601
L864.604 176.975
L864.858 176.975
L865.01 216.335
L865.264 216.335
L865.416 207.074
L865.67 207.074
L865.822 182.764
L866.075 182.764
L866.228 193.182
L866.481 193.182
L866.633 209.389
L866.887 209.389
L867.039 193.182
L867.293 193.182
L867.445 188.552
L867.698 188.552
L867.851 205.916
L868.104 205.916
L868.256 197.813
L868.51 197.813
L868.662 210.547
L869.322 210.547
L869.474 182.764
L869.727 182.764
L869.88 192.025
L870.133 192.025
L870.285 172.345
L870.539 172.345
L870.691 192.025
L870.945 192.025
L871.097 170.029
L871.351 170.029
L871.503 211.705
L871.756 211.705
L871.908 195.498
L872.162 195.498
L872.314 179.291
L872.568 179.291
L872.72 212.862
L872.974 212.862
L873.126 214.02
L873.379 214.02
L873.532 202.444
L873.785 202.444
L873.937 186.236
L874.191 186.236
L874.343 188.552
L874.597 188.552
L874.749 205.916
L875.003 205.916
L875.155 182.764
L875.408 182.764
L875.561 208.232
L875.814 208.232
L875.966 211.705
L876.22 211.705
L876.372 193.182
L876.626 193.182
L876.778 171.187
L877.031 171.187
L877.184 194.34
L877.437 194.34
L877.589 193.182
L877.843 193.182
L877.995 187.394
L878.249 187.394
L878.401 174.66
L878.655 174.66
L878.807 170.029
L879.06 170.029
L879.213 173.502
L879.466 173.502
L879.618 207.074
L879.872 207.074
L880.024 215.178
L880.278 215.178
L880.43 187.394
L880.684 187.394
L880.836 198.971
L881.089 198.971
L881.241 201.286
L881.495 201.286
L881.647 207.074
L881.901 207.074
L882.053 215.178
L882.307 215.178
L882.459 205.916
L882.712 205.916
L882.865 187.394
L883.118 187.394
L883.27 175.818
L883.524 175.818
L883.676 212.862
L883.93 212.862
L884.082 200.128
L884.336 200.128
L884.488 215.178
L884.741 215.178
L884.893 190.867
L885.147 190.867
L885.299 192.025
L885.553 192.025
L885.705 212.862
L885.959 212.862
L886.111 179.291
L886.364 179.291
L886.517 214.02
L886.77 214.02
L886.922 170.029
L887.176 170.029
L887.328 189.709
L887.582 189.709
L887.734 196.655
L887.988 196.655
L888.14 195.498
L888.393 195.498
L888.546 190.867
L888.799 190.867
L888.951 182.764
L889.205 182.764
L889.357 212.862
L889.611 212.862
L889.763 196.655
L890.016 196.655
L890.169 175.818
L890.422 175.818
L890.574 182.764
L890.828 182.764
L890.98 208.232
L891.234 208.232
L891.386 203.601
L891.64 203.601
L891.792 205.916
L892.045 205.916
L892.198 190.867
L892.451 190.867
L892.603 216.335
L892.857 216.335
L893.009 215.178
L893.263 215.178
L893.415 197.813
L893.669 197.813
L893.821 172.345
L894.074 172.345
L894.226 173.502
L894.48 173.502
L894.632 214.02
L894.886 214.02
L895.038 194.34
L895.292 194.34
L895.444 171.187
L895.697 171.187
L895.85 192.025
L896.103 192.025
L896.255 208.232
L896.509 208.232
L896.661 189.709
L896.915 189.709
L897.067 181.606
L897.321 181.606
L897.473 212.862
L897.726 212.862
L897.879 203.601
L898.132 203.601
L898.284 189.709
L898.538 189.709
L898.69 208.232
L898.944 208.232
L899.096 215.178
L899.349 215.178
L899.502 174.66
L899.755 174.66
L899.907 188.552
L900.161 188.552
L900.313 182.764
L900.567 182.764
L900.719 183.921
L900.973 183.921
L901.125 182.764
L901.378 182.764
L901.531 203.601
L901.784 203.601
L901.936 187.394
L902.19 187.394
L902.342 175.818
L902.596 175.818
L902.748 216.335
L903.001 216.335
L903.154 178.133
L903.407 178.133
L903.559 201.286
L903.813 201.286
L903.965 190.867
L904.219 190.867
L904.371 188.552
L904.625 188.552
L904.777 192.025
L905.03 192.025
L905.183 193.182
L905.436 193.182
L905.588 201.286
L905.842 201.286
L905.994 195.498
L906.248 195.498
L906.4 196.655
L906.654 196.655
L906.806 205.916
L907.059 205.916
L907.211 190.867
L907.465 190.867
L907.617 202.444
L907.871 202.444
L908.023 174.66
L908.277 174.66
L908.429 186.236
L908.682 186.236
L908.835 208.232
L909.088 208.232
L909.24 176.975
L909.494 176.975
L909.646 172.345
L909.9 172.345
L910.052 185.079
L910.306 185.079
L910.458 215.178
L910.711 215.178
L910.864 175.818
L911.117 175.818
L911.269 198.971
L911.523 198.971
L911.675 207.074
L911.929 207.074
L912.081 180.448
L912.334 180.448
L912.487 187.394
L912.74 187.394
L912.892 190.867
L913.146 190.867
L913.298 192.025
L913.552 192.025
L913.704 187.394
L913.958 187.394
L914.11 178.133
L914.363 178.133
L914.516 201.286
L914.769 201.286
L914.921 172.345
L915.175 172.345
L915.327 196.655
L915.581 196.655
L915.733 195.498
L915.987 195.498
L916.139 175.818
L916.392 175.818
L916.544 204.759
L916.798 204.759
L916.95 176.975
L917.204 176.975
L917.356 181.606
L917.61 181.606
L917.762 173.502
L918.015 173.502
L918.168 192.025
L918.421 192.025
L918.573 186.236
L918.827 186.236
L918.979 211.705
L919.233 211.705
L919.385 179.291
L919.639 179.291
L919.791 178.133
L920.044 178.133
L920.196 208.232
L920.45 208.232
L920.602 189.709
L920.856 189.709
L921.008 200.128
L921.262 200.128
L921.414 186.236
L921.667 186.236
L921.82 193.182
L922.073 193.182
L922.225 197.813
L922.479 197.813
L922.631 183.921
L922.885 183.921
L923.037 198.971
L923.291 198.971
L923.443 185.079
L923.696 185.079
L923.849 174.66
L924.102 174.66
L924.254 202.444
L924.508 202.444
L924.66 209.389
L924.914 209.389
L925.066 202.444
L925.319 202.444
L925.472 179.291
L925.725 179.291
L925.877 180.448
L926.131 180.448
L926.283 208.232
L926.537 208.232
L926.689 197.813
L926.943 197.813
L927.095 201.286
L927.348 201.286
L927.501 172.345
L927.754 172.345
L927.906 192.025
L928.16 192.025
L928.312 178.133
L928.566 178.133
L928.718 215.178
L928.972 215.178
L929.124 178.133
L929.377 178.133
L929.529 172.345
L929.783 172.345
L929.935 174.66
L930.189 174.66
L930.341 171.187
L930.595 171.187
L930.747 190.867
L931 190.867
L931.153 211.705
L931.406 211.705
L931.558 178.133
L931.812 178.133
L931.964 215.178
L932.218 215.178
L932.37 209.389
L932.624 209.389
L932.776 187.394
L933.029 187.394
L933.182 211.705
L933.435 211.705
L933.587 179.291
L933.841 179.291
L933.993 188.552
L934.247 188.552
L934.399 198.971
L934.652 198.971
L934.805 187.394
L935.058 187.394
L935.21 176.975
L935.464 176.975
L935.616 193.182
L935.87 193.182
L936.022 190.867
L936.276 190.867
L936.428 196.655
L936.681 196.655
L936.834 190.867
L937.087 190.867
L937.239 204.759
L937.493 204.759
L937.645 215.178
L937.899 215.178
L938.051 179.291
L938.304 179.291
L938.457 170.029
L938.71 170.029
L938.862 195.498
L939.116 195.498
L939.268 197.813
L939.522 197.813
L939.674 193.182
L939.928 193.182
L940.08 202.444
L940.333 202.444
L940.486 216.335
L940.739 216.335
L940.891 208.232
L941.145 208.232
L941.297 201.286
L941.551 201.286
L941.703 208.232
L941.957 208.232
L942.109 214.02
L942.362 214.02
L942.514 185.079
L942.768 185.079
L942.92 203.601
L943.174 203.601
L943.326 180.448
L943.58 180.448
L943.732 203.601
L943.985 203.601
L944.138 186.236
L944.391 186.236
L944.543 181.606
L944.797 181.606
L944.949 190.867
L945.203 190.867
L945.355 171.187
L945.609 171.187
L945.761 207.074
L946.014 207.074
L946.167 176.975
L946.42 176.975
L946.572 183.921
L946.826 183.921
L946.978 210.547
L947.232 210.547
L947.384 175.818
L947.637 175.818
L947.79 178.133
L948.043 178.133
L948.195 198.971
L948.449 198.971
L948.601 192.025
L948.855 192.025
L949.007 208.232
L949.261 208.232
L949.413 175.818
L949.666 175.818
L949.819 203.601
L950.072 203.601
L950.224 183.921
L950.478 183.921
L950.63 207.074
L950.884 207.074
L951.036 196.655
L951.29 196.655
L951.442 189.709
L951.695 189.709
L951.847 186.236
L952.101 186.236
L952.253 170.029
L952.507 170.029
L952.659 179.291
L952.913 179.291
L953.065 189.709
L953.318 189.709
L953.471 186.236
L953.724 186.236
L953.876 176.975
L954.13 176.975
L954.282 212.862
L954.536 212.862
L954.688 170.029
L954.942 170.029
L955.094 195.498
L955.347 195.498
L955.499 197.813
L955.753 197.813
L955.905 188.552
L956.159 188.552
L956.311 172.345
L956.565 172.345
L956.717 188.552
L956.97 188.552
L957.123 212.862
L957.376 212.862
L957.528 187.394
L957.782 187.394
L957.934 181.606
L958.188 181.606
L958.34 175.818
L958.594 175.818
L958.746 183.921
L958.999 183.921
L959.152 204.759
L959.405 204.759
L959.557 173.502
L959.811 173.502
L959.963 175.818
L960.217 175.818
L960.369 198.971
L960.622 198.971
L960.775 216.335
L961.028 216.335
L961.18 175.818
L961.84 175.818
L961.992 183.921
L980.1 183.921
L980.1 183.921" style="fill:none;stroke:#0000ff;stroke-linecap:square;"/>
   </g>
   <g id="matplotlib.axis_1">
    <g id="xtick_1">
     <g id="line2d_2">
      <path clip-path="url(#pdae6ac7bf1)" d="
M136.125 332.1
L136.125 36.9" style="fill:none;stroke:#000000;stroke-dasharray:1.000000,3.000000;stroke-dashoffset:0.0;stroke-width:0.5;"/>
     </g>
     <g id="line2d_3">
      <defs>
       <path d="
M0 0
L0 -4" id="m93b0483c22" style="stroke:#000000;stroke-width:0.5;"/>
      </defs>
      <g>
       <use style="stroke:#000000;stroke-width:0.5;" x="136.125" xlink:href="#m93b0483c22" y="332.1"/>
      </g>
     </g>
     <g id="line2d_4">
      <defs>
       <path d="
M0 0
L0 4" id="m741efc42ff" style="stroke:#000000;stroke-width:0.5;"/>
      </defs>
      <g>
       <use style="stroke:#000000;stroke-width:0.5;" x="136.125" xlink:href="#m741efc42ff" y="36.9"/>
      </g>
     </g>
     <g id="text_1">
      <!-- 0.0 -->
      <defs>
       <path d="
M31.7812 66.4062
Q24.1719 66.4062 20.3281 58.9062
Q16.5 51.4219 16.5 36.375
Q16.5 21.3906 20.3281 13.8906
Q24.1719 6.39062 31.7812 6.39062
Q39.4531 6.39062 43.2812 13.8906
Q47.125 21.3906 47.125 36.375
Q47.125 51.4219 43.2812 58.9062
Q39.4531 66.4062 31.7812 66.4062
M31.7812 74.2188
Q44.0469 74.2188 50.5156 64.5156
Q56.9844 54.8281 56.9844 36.375
Q56.9844 17.9688 50.5156 8.26562
Q44.0469 -1.42188 31.7812 -1.42188
Q19.5312 -1.42188 13.0625 8.26562
Q6.59375 17.9688 6.59375 36.375
Q6.59375 54.8281 13.0625 64.5156
Q19.5312 74.2188 31.7812 74.2188" id="DejaVuSans-30"/>
       <path d="
M10.6875 12.4062
L21 12.4062
L21 0
L10.6875 0
z
" id="DejaVuSans-2e"/>
      </defs>
      <g transform="translate(127.3771875 345.218125)scale(0.12 -0.12)">
       <use xlink:href="#DejaVuSans-30"/>
       <use x="63.623046875" xlink:href="#DejaVuSans-2e"/>
       <use x="95.41015625" xlink:href="#DejaVuSans-30"/>
      </g>
     </g>
    </g>
    <g id="xtick_2">
     <g id="line2d_5">
      <path clip-path="url(#pdae6ac7bf1)" d="
M304.92 332.1
L304.92 36.9" style="fill:none;stroke:#000000;stroke-dasharray:1.000000,3.000000;stroke-dashoffset:0.0;stroke-width:0.5;"/>
     </g>
     <g id="line2d_6">
      <g>
       <use style="stroke:#000000;stroke-width:0.5;" x="304.92" xlink:href="#m93b0483c22" y="332.1"/>
      </g>
     </g>
     <g id="line2d_7">
      <g>
       <use style="stroke:#000000;stroke-width:0.5;" x="304.92" xlink:href="#m741efc42ff" y="36.9"/>
      </g>
     </g>
     <g id="text_2">
      <!-- 0.1 -->
      <defs>
       <path d="
M12.4062 8.29688
L28.5156 8.29688
L28.5156 63.9219
L10.9844 60.4062
L10.9844 69.3906
L28.4219 72.9062
L38.2812 72.9062
L38.2812 8.29688
L54.3906 8.29688
L54.3906 0
L12.4062 0
z
" id="DejaVuSans-31"/>
      </defs>
      <g transform="translate(296.3278125 345.218125)scale(0.12 -0.12)">
       <use xlink:href="#DejaVuSans-30"/>
       <use x="63.623046875" xlink:href="#DejaVuSans-2e"/>
       <use x="95.41015625" xlink:href="#DejaVuSans-31"/>
      </g>
     </g>
    </g>
    <g id="xtick_3">
     <g id="line2d_8">
      <path clip-path="url(#pdae6ac7bf1)" d="
M473.715 332.1
L473.715 36.9" style="fill:none;stroke:#000000;stroke-dasharray:1.000000,3.000000;stroke-dashoffset:0.0;stroke-width:0.5;"/>
     </g>
     <g id="line2d_9">
      <g>
       <use style="stroke:#000000;stroke-width:0.5;" x="473.715" xlink:href="#m93b0483c22" y="332.1"/>
      </g>
     </g>
     <g id="line2d_10">
      <g>
       <use style="stroke:#000000;stroke-width:0.5;" x="473.715" xlink:href="#m741efc42ff" y="36.9"/>
      </g>
     </g>
     <g id="text_3">
      <!-- 0.2 -->
      <defs>
       <path d="
M19.1875 8.29688
L53.6094 8.29688
L53.6094 0
L7.32812 0
L7.32812 8.29688
Q12.9375 14.1094 22.625 23.8906
Q32.3281 33.6875 34.8125 36.5312
Q39.5469 41.8438 41.4219 45.5312
Q43.3125 49.2188 43.3125 52.7812
Q43.3125 58.5938 39.2344 62.25
Q35.1562 65.9219 28.6094 65.9219
Q23.9688 65.9219 18.8125 64.3125
Q13.6719 62.7031 7.8125 59.4219
L7.8125 69.3906
Q13.7656 71.7812 18.9375 73
Q24.125 74.2188 28.4219 74.2188
Q39.75 74.2188 46.4844 68.5469
Q53.2188 62.8906 53.2188 53.4219
Q53.2188 48.9219 51.5312 44.8906
Q49.8594 40.875 45.4062 35.4062
Q44.1875 33.9844 37.6406 27.2188
Q31.1094 20.4531 19.1875 8.29688" id="DejaVuSans-32"/>
      </defs>
      <g transform="translate(465.1696875 345.218125)scale(0.12 -0.12)">
       <use xlink:href="#DejaVuSans-30"/>
       <use x="63.623046875" xlink:href="#DejaVuSans-2e"/>
       <use x="95.41015625" xlink:href="#DejaVuSans-32"/>
      </g>
     </g>
    </g>
    <g id="xtick_4">
     <g id="line2d_11">
      <path clip-path="url(#pdae6ac7bf1)" d="
M642.51 332.1
L642.51 36.9" style="fill:none;stroke:#000000;stroke-dasharray:1.000000,3.000000;stroke-dashoffset:0.0;stroke-width:0.5;"/>
     </g>
     <g id="line2d_12">
      <g>
       <use style="stroke:#000000;stroke-width:0.5;" x="642.51" xlink:href="#m93b0483c22" y="332.1"/>
      </g>
     </g>
     <g id="line2d_13">
      <g>
       <use style="stroke:#000000;stroke-width:0.5;" x="642.51" xlink:href="#m741efc42ff" y="36.9"/>
      </g>
     </g>
     <g id="text_4">
      <!-- 0.3 -->
      <defs>
       <path d="
M40.5781 39.3125
Q47.6562 37.7969 51.625 33
Q55.6094 28.2188 55.6094 21.1875
Q55.6094 10.4062 48.1875 4.48438
Q40.7656 -1.42188 27.0938 -1.42188
Q22.5156 -1.42188 17.6562 -0.515625
Q12.7969 0.390625 7.625 2.20312
L7.625 11.7188
Q11.7188 9.32812 16.5938 8.10938
Q21.4844 6.89062 26.8125 6.89062
Q36.0781 6.89062 40.9375 10.5469
Q45.7969 14.2031 45.7969 21.1875
Q45.7969 27.6406 41.2812 31.2656
Q36.7656 34.9062 28.7188 34.9062
L20.2188 34.9062
L20.2188 43.0156
L29.1094 43.0156
Q36.375 43.0156 40.2344 45.9219
Q44.0938 48.8281 44.0938 54.2969
Q44.0938 59.9062 40.1094 62.9062
Q36.1406 65.9219 28.7188 65.9219
Q24.6562 65.9219 20.0156 65.0312
Q15.375 64.1562 9.8125 62.3125
L9.8125 71.0938
Q15.4375 72.6562 20.3438 73.4375
Q25.25 74.2188 29.5938 74.2188
Q40.8281 74.2188 47.3594 69.1094
Q53.9062 64.0156 53.9062 55.3281
Q53.9062 49.2656 50.4375 45.0938
Q46.9688 40.9219 40.5781 39.3125" id="DejaVuSans-33"/>
      </defs>
      <g transform="translate(633.8446875 345.218125)scale(0.12 -0.12)">
       <use xlink:href="#DejaVuSans-30"/>
       <use x="63.623046875" xlink:href="#DejaVuSans-2e"/>
       <use x="95.41015625" xlink:href="#DejaVuSans-33"/>
      </g>
     </g>
    </g>
    <g id="xtick_5">
     <g id="line2d_14">
      <path clip-path="url(#pdae6ac7bf1)" d="
M811.305 332.1
L811.305 36.9" style="fill:none;stroke:#000000;stroke-dasharray:1.000000,3.000000;stroke-dashoffset:0.0;stroke-width:0.5;"/>
     </g>
     <g id="line2d_15">
      <g>
       <use style="stroke:#000000;stroke-width:0.5;" x="811.305" xlink:href="#m93b0483c22" y="332.1"/>
      </g>
     </g>
     <g id="line2d_16">
      <g>
       <use style="stroke:#000000;stroke-width:0.5;" x="811.305" xlink:href="#m741efc42ff" y="36.9"/>
      </g>
     </g>
     <g id="text_5">
      <!-- 0.4 -->
      <defs>
       <path d="
M37.7969 64.3125
L12.8906 25.3906
L37.7969 25.3906
z

M35.2031 72.9062
L47.6094 72.9062
L47.6094 25.3906
L58.0156 25.3906
L58.0156 17.1875
L47.6094 17.1875
L47.6094 0
L37.7969 0
L37.7969 17.1875
L4.89062 17.1875
L4.89062 26.7031
z
" id="DejaVuSans-34"/>
      </defs>
      <g transform="translate(802.4953125 345.218125)scale(0.12 -0.12)">
       <use xlink:href="#DejaVuSans-30"/>
       <use x="63.623046875" xlink:href="#DejaVuSans-2e"/>
       <use x="95.41015625" xlink:href="#DejaVuSans-34"/>
      </g>
     </g>
    </g>
    <g id="xtick_6">
     <g id="line2d_17">
      <path clip-path="url(#pdae6ac7bf1)" d="
M980.1 332.1
L980.1 36.9" style="fill:none;stroke:#000000;stroke-dasharray:1.000000,3.000000;stroke-dashoffset:0.0;stroke-width:0.5;"/>
     </g>
     <g id="line2d_18">
      <g>
       <use style="stroke:#000000;stroke-width:0.5;" x="980.1" xlink:href="#m93b0483c22" y="332.1"/>
      </g>
     </g>
     <g id="line2d_19">
      <g>
       <use style="stroke:#000000;stroke-width:0.5;" x="980.1" xlink:href="#m741efc42ff" y="36.9"/>
      </g>
     </g>
     <g id="text_6">
      <!-- 0.5 -->
      <defs>
       <path d="
M10.7969 72.9062
L49.5156 72.9062
L49.5156 64.5938
L19.8281 64.5938
L19.8281 46.7344
Q21.9688 47.4688 24.1094 47.8281
Q26.2656 48.1875 28.4219 48.1875
Q40.625 48.1875 47.75 41.5
Q54.8906 34.8125 54.8906 23.3906
Q54.8906 11.625 47.5625 5.09375
Q40.2344 -1.42188 26.9062 -1.42188
Q22.3125 -1.42188 17.5469 -0.640625
Q12.7969 0.140625 7.71875 1.70312
L7.71875 11.625
Q12.1094 9.23438 16.7969 8.0625
Q21.4844 6.89062 26.7031 6.89062
Q35.1562 6.89062 40.0781 11.3281
Q45.0156 15.7656 45.0156 23.3906
Q45.0156 31 40.0781 35.4375
Q35.1562 39.8906 26.7031 39.8906
Q22.75 39.8906 18.8125 39.0156
Q14.8906 38.1406 10.7969 36.2812
z
" id="DejaVuSans-35"/>
      </defs>
      <g transform="translate(971.4778125 345.218125)scale(0.12 -0.12)">
       <use xlink:href="#DejaVuSans-30"/>
       <use x="63.623046875" xlink:href="#DejaVuSans-2e"/>
       <use x="95.41015625" xlink:href="#DejaVuSans-35"/>
      </g>
     </g>
    </g>
    <g id="text_7">
     <!-- time [s] -->
     <defs>
      <path d="
M8.59375 75.9844
L29.2969 75.9844
L29.2969 69
L17.5781 69
L17.5781 -6.20312
L29.2969 -6.20312
L29.2969 -13.1875
L8.59375 -13.1875
z
" id="DejaVuSans-5b"/>
      <path d="
M52 44.1875
Q55.375 50.25 60.0625 53.125
Q64.75 56 71.0938 56
Q79.6406 56 84.2812 50.0156
Q88.9219 44.0469 88.9219 33.0156
L88.9219 0
L79.8906 0
L79.8906 32.7188
Q79.8906 40.5781 77.0938 44.375
Q74.3125 48.1875 68.6094 48.1875
Q61.625 48.1875 57.5625 43.5469
Q53.5156 38.9219 53.5156 30.9062
L53.5156 0
L44.4844 0
L44.4844 32.7188
Q44.4844 40.625 41.7031 44.4062
Q38.9219 48.1875 33.1094 48.1875
Q26.2188 48.1875 22.1562 43.5312
Q18.1094 38.875 18.1094 30.9062
L18.1094 0
L9.07812 0
L9.07812 54.6875
L18.1094 54.6875
L18.1094 46.1875
Q21.1875 51.2188 25.4844 53.6094
Q29.7812 56 35.6875 56
Q41.6562 56 45.8281 52.9688
Q50 49.9531 52 44.1875" id="DejaVuSans-6d"/>
      <path d="
M30.4219 75.9844
L30.4219 -13.1875
L9.71875 -13.1875
L9.71875 -6.20312
L21.3906 -6.20312
L21.3906 69
L9.71875 69
L9.71875 75.9844
z
" id="DejaVuSans-5d"/>
      <path id="DejaVuSans-20"/>
      <path d="
M9.42188 54.6875
L18.4062 54.6875
L18.4062 0
L9.42188 0
z

M9.42188 75.9844
L18.4062 75.9844
L18.4062 64.5938
L9.42188 64.5938
z
" id="DejaVuSans-69"/>
      <path d="
M18.3125 70.2188
L18.3125 54.6875
L36.8125 54.6875
L36.8125 47.7031
L18.3125 47.7031
L18.3125 18.0156
Q18.3125 11.3281 20.1406 9.42188
Q21.9688 7.51562 27.5938 7.51562
L36.8125 7.51562
L36.8125 0
L27.5938 0
Q17.1875 0 13.2344 3.875
Q9.28125 7.76562 9.28125 18.0156
L9.28125 47.7031
L2.6875 47.7031
L2.6875 54.6875
L9.28125 54.6875
L9.28125 70.2188
z
" id="DejaVuSans-74"/>
      <path d="
M56.2031 29.5938
L56.2031 25.2031
L14.8906 25.2031
Q15.4844 15.9219 20.4844 11.0625
Q25.4844 6.20312 34.4219 6.20312
Q39.5938 6.20312 44.4531 7.46875
Q49.3125 8.73438 54.1094 11.2812
L54.1094 2.78125
Q49.2656 0.734375 44.1875 -0.34375
Q39.1094 -1.42188 33.8906 -1.42188
Q20.7969 -1.42188 13.1562 6.1875
Q5.51562 13.8125 5.51562 26.8125
Q5.51562 40.2344 12.7656 48.1094
Q20.0156 56 32.3281 56
Q43.3594 56 49.7812 48.8906
Q56.2031 41.7969 56.2031 29.5938
M47.2188 32.2344
Q47.125 39.5938 43.0938 43.9844
Q39.0625 48.3906 32.4219 48.3906
Q24.9062 48.3906 20.3906 44.1406
Q15.875 39.8906 15.1875 32.1719
z
" id="DejaVuSans-65"/>
      <path d="
M44.2812 53.0781
L44.2812 44.5781
Q40.4844 46.5312 36.375 47.5
Q32.2812 48.4844 27.875 48.4844
Q21.1875 48.4844 17.8438 46.4375
Q14.5 44.3906 14.5 40.2812
Q14.5 37.1562 16.8906 35.375
Q19.2812 33.5938 26.5156 31.9844
L29.5938 31.2969
Q39.1562 29.25 43.1875 25.5156
Q47.2188 21.7812 47.2188 15.0938
Q47.2188 7.46875 41.1875 3.01562
Q35.1562 -1.42188 24.6094 -1.42188
Q20.2188 -1.42188 15.4531 -0.5625
Q10.6875 0.296875 5.42188 2
L5.42188 11.2812
Q10.4062 8.6875 15.2344 7.39062
Q20.0625 6.10938 24.8125 6.10938
Q31.1562 6.10938 34.5625 8.28125
Q37.9844 10.4531 37.9844 14.4062
Q37.9844 18.0625 35.5156 20.0156
Q33.0625 21.9688 24.7031 23.7812
L21.5781 24.5156
Q13.2344 26.2656 9.51562 29.9062
Q5.8125 33.5469 5.8125 39.8906
Q5.8125 47.6094 11.2812 51.7969
Q16.75 56 26.8125 56
Q31.7812 56 36.1719 55.2656
Q40.5781 54.5469 44.2812 53.0781" id="DejaVuSans-73"/>
     </defs>
     <g transform="translate(535.3584375 361.831875)scale(0.12 -0.12)">
      <use xlink:href="#DejaVuSans-74"/>
      <use x="39.208984375" xlink:href="#DejaVuSans-69"/>
      <use x="66.9921875" xlink:href="#DejaVuSans-6d"/>
      <use x="164.404296875" xlink:href="#DejaVuSans-65"/>
      <use x="225.927734375" xlink:href="#DejaVuSans-20"/>
      <use x="257.71484375" xlink:href="#DejaVuSans-5b"/>
      <use x="296.728515625" xlink:href="#DejaVuSans-73"/>
      <use x="348.828125" xlink:href="#DejaVuSans-5d"/>
     </g>
    </g>
   </g>
   <g id="matplotlib.axis_2">
    <g id="ytick_1">
     <g id="line2d_20">
      <path clip-path="url(#pdae6ac7bf1)" d="
M136.125 332.1
L980.1 332.1" style="fill:none;stroke:#000000;stroke-dasharray:1.000000,3.000000;stroke-dashoffset:0.0;stroke-width:0.5;"/>
     </g>
     <g id="line2d_21">
      <defs>
       <path d="
M0 0
L4 0" id="m728421d6d4" style="stroke:#000000;stroke-width:0.5;"/>
      </defs>
      <g>
       <use style="stroke:#000000;stroke-width:0.5;" x="136.125" xlink:href="#m728421d6d4" y="332.1"/>
      </g>
     </g>
     <g id="line2d_22">
      <defs>
       <path d="
M0 0
L-4 0" id="mcb0005524f" style="stroke:#000000;stroke-width:0.5;"/>
      </defs>
      <g>
       <use style="stroke:#000000;stroke-width:0.5;" x="980.1" xlink:href="#mcb0005524f" y="332.1"/>
      </g>
     </g>
     <g id="text_8">
      <!-- 0.0 -->
      <g transform="translate(114.629375 335.41125)scale(0.12 -0.12)">
       <use xlink:href="#DejaVuSans-30"/>
       <use x="63.623046875" xlink:href="#DejaVuSans-2e"/>
       <use x="95.41015625" xlink:href="#DejaVuSans-30"/>
      </g>
     </g>
    </g>
    <g id="ytick_2">
     <g id="line2d_23">
      <path clip-path="url(#pdae6ac7bf1)" d="
M136.125 273.06
L980.1 273.06" style="fill:none;stroke:#000000;stroke-dasharray:1.000000,3.000000;stroke-dashoffset:0.0;stroke-width:0.5;"/>
     </g>
     <g id="line2d_24">
      <g>
       <use style="stroke:#000000;stroke-width:0.5;" x="136.125" xlink:href="#m728421d6d4" y="273.06"/>
      </g>
     </g>
     <g id="line2d_25">
      <g>
       <use style="stroke:#000000;stroke-width:0.5;" x="980.1" xlink:href="#mcb0005524f" y="273.06"/>
      </g>
     </g>
     <g id="text_9">
      <!-- 0.2 -->
      <g transform="translate(115.034375 276.37125)scale(0.12 -0.12)">
       <use xlink:href="#DejaVuSans-30"/>
       <use x="63.623046875" xlink:href="#DejaVuSans-2e"/>
       <use x="95.41015625" xlink:href="#DejaVuSans-32"/>
      </g>
     </g>
    </g>
    <g id="ytick_3">
     <g id="line2d_26">
      <path clip-path="url(#pdae6ac7bf1)" d="
M136.125 214.02
L980.1 214.02" style="fill:none;stroke:#000000;stroke-dasharray:1.000000,3.000000;stroke-dashoffset:0.0;stroke-width:0.5;"/>
     </g>
     <g id="line2d_27">
      <g>
       <use style="stroke:#000000;stroke-width:0.5;" x="136.125" xlink:href="#m728421d6d4" y="214.02"/>
      </g>
     </g>
     <g id="line2d_28">
      <g>
       <use style="stroke:#000000;stroke-width:0.5;" x="980.1" xlink:href="#mcb0005524f" y="214.02"/>
      </g>
     </g>
     <g id="text_10">
      <!-- 0.4 -->
      <g transform="translate(114.505625 217.33125)scale(0.12 -0.12)">
       <use xlink:href="#DejaVuSans-30"/>
       <use x="63.623046875" xlink:href="#DejaVuSans-2e"/>
       <use x="95.41015625" xlink:href="#DejaVuSans-34"/>
      </g>
     </g>
    </g>
    <g id="ytick_4">
     <g id="line2d_29">
      <path clip-path="url(#pdae6ac7bf1)" d="
M136.125 154.98
L980.1 154.98" style="fill:none;stroke:#000000;stroke-dasharray:1.000000,3.000000;stroke-dashoffset:0.0;stroke-width:0.5;"/>
     </g>
     <g id="line2d_30">
      <g>
       <use style="stroke:#000000;stroke-width:0.5;" x="136.125" xlink:href="#m728421d6d4" y="154.98"/>
      </g>
     </g>
     <g id="line2d_31">
      <g>
       <use style="stroke:#000000;stroke-width:0.5;" x="980.1" xlink:href="#mcb0005524f" y="154.98"/>
      </g>
     </g>
     <g id="text_11">
      <!-- 0.6 -->
      <defs>
       <path d="
M33.0156 40.375
Q26.375 40.375 22.4844 35.8281
Q18.6094 31.2969 18.6094 23.3906
Q18.6094 15.5312 22.4844 10.9531
Q26.375 6.39062 33.0156 6.39062
Q39.6562 6.39062 43.5312 10.9531
Q47.4062 15.5312 47.4062 23.3906
Q47.4062 31.2969 43.5312 35.8281
Q39.6562 40.375 33.0156 40.375
M52.5938 71.2969
L52.5938 62.3125
Q48.875 64.0625 45.0938 64.9844
Q41.3125 65.9219 37.5938 65.9219
Q27.8281 65.9219 22.6719 59.3281
Q17.5312 52.7344 16.7969 39.4062
Q19.6719 43.6562 24.0156 45.9219
Q28.375 48.1875 33.5938 48.1875
Q44.5781 48.1875 50.9531 41.5156
Q57.3281 34.8594 57.3281 23.3906
Q57.3281 12.1562 50.6875 5.35938
Q44.0469 -1.42188 33.0156 -1.42188
Q20.3594 -1.42188 13.6719 8.26562
Q6.98438 17.9688 6.98438 36.375
Q6.98438 53.6562 15.1875 63.9375
Q23.3906 74.2188 37.2031 74.2188
Q40.9219 74.2188 44.7031 73.4844
Q48.4844 72.75 52.5938 71.2969" id="DejaVuSans-36"/>
      </defs>
      <g transform="translate(114.588125 158.29125)scale(0.12 -0.12)">
       <use xlink:href="#DejaVuSans-30"/>
       <use x="63.623046875" xlink:href="#DejaVuSans-2e"/>
       <use x="95.41015625" xlink:href="#DejaVuSans-36"/>
      </g>
     </g>
    </g>
    <g id="ytick_5">
     <g id="line2d_32">
      <path clip-path="url(#pdae6ac7bf1)" d="
M136.125 95.94
L980.1 95.94" style="fill:none;stroke:#000000;stroke-dasharray:1.000000,3.000000;stroke-dashoffset:0.0;stroke-width:0.5;"/>
     </g>
     <g id="line2d_33">
      <g>
       <use style="stroke:#000000;stroke-width:0.5;" x="136.125" xlink:href="#m728421d6d4" y="95.94"/>
      </g>
     </g>
     <g id="line2d_34">
      <g>
       <use style="stroke:#000000;stroke-width:0.5;" x="980.1" xlink:href="#mcb0005524f" y="95.94"/>
      </g>
     </g>
     <g id="text_12">
      <!-- 0.8 -->
      <defs>
       <path d="
M31.7812 34.625
Q24.75 34.625 20.7188 30.8594
Q16.7031 27.0938 16.7031 20.5156
Q16.7031 13.9219 20.7188 10.1562
Q24.75 6.39062 31.7812 6.39062
Q38.8125 6.39062 42.8594 10.1719
Q46.9219 13.9688 46.9219 20.5156
Q46.9219 27.0938 42.8906 30.8594
Q38.875 34.625 31.7812 34.625
M21.9219 38.8125
Q15.5781 40.375 12.0312 44.7188
Q8.5 49.0781 8.5 55.3281
Q8.5 64.0625 14.7188 69.1406
Q20.9531 74.2188 31.7812 74.2188
Q42.6719 74.2188 48.875 69.1406
Q55.0781 64.0625 55.0781 55.3281
Q55.0781 49.0781 51.5312 44.7188
Q48 40.375 41.7031 38.8125
Q48.8281 37.1562 52.7969 32.3125
Q56.7812 27.4844 56.7812 20.5156
Q56.7812 9.90625 50.3125 4.23438
Q43.8438 -1.42188 31.7812 -1.42188
Q19.7344 -1.42188 13.25 4.23438
Q6.78125 9.90625 6.78125 20.5156
Q6.78125 27.4844 10.7812 32.3125
Q14.7969 37.1562 21.9219 38.8125
M18.3125 54.3906
Q18.3125 48.7344 21.8438 45.5625
Q25.3906 42.3906 31.7812 42.3906
Q38.1406 42.3906 41.7188 45.5625
Q45.3125 48.7344 45.3125 54.3906
Q45.3125 60.0625 41.7188 63.2344
Q38.1406 66.4062 31.7812 66.4062
Q25.3906 66.4062 21.8438 63.2344
Q18.3125 60.0625 18.3125 54.3906" id="DejaVuSans-38"/>
      </defs>
      <g transform="translate(114.65375 99.25125)scale(0.12 -0.12)">
       <use xlink:href="#DejaVuSans-30"/>
       <use x="63.623046875" xlink:href="#DejaVuSans-2e"/>
       <use x="95.41015625" xlink:href="#DejaVuSans-38"/>
      </g>
     </g>
    </g>
    <g id="ytick_6">
     <g id="line2d_35">
      <path clip-path="url(#pdae6ac7bf1)" d="
M136.125 36.9
L980.1 36.9" style="fill:none;stroke:#000000;stroke-dasharray:1.000000,3.000000;stroke-dashoffset:0.0;stroke-width:0.5;"/>
     </g>
     <g id="line2d_36">
      <g>
       <use style="stroke:#000000;stroke-width:0.5;" x="136.125" xlink:href="#m728421d6d4" y="36.9"/>
      </g>
     </g>
     <g id="line2d_37">
      <g>
       <use style="stroke:#000000;stroke-width:0.5;" x="980.1" xlink:href="#mcb0005524f" y="36.9"/>
      </g>
     </g>
     <g id="text_13">
      <!-- 1.0 -->
      <g transform="translate(115.15625 40.21125)scale(0.12 -0.12)">
       <use xlink:href="#DejaVuSans-31"/>
       <use x="63.623046875" xlink:href="#DejaVuSans-2e"/>
       <use x="95.41015625" xlink:href="#DejaVuSans-30"/>
      </g>
     </g>
    </g>
    <g id="text_14">
     <!-- Signal value -->
     <defs>
      <path d="
M54.8906 33.0156
L54.8906 0
L45.9062 0
L45.9062 32.7188
Q45.9062 40.4844 42.875 44.3281
Q39.8438 48.1875 33.7969 48.1875
Q26.5156 48.1875 22.3125 43.5469
Q18.1094 38.9219 18.1094 30.9062
L18.1094 0
L9.07812 0
L9.07812 54.6875
L18.1094 54.6875
L18.1094 46.1875
Q21.3438 51.125 25.7031 53.5625
Q30.0781 56 35.7969 56
Q45.2188 56 50.0469 50.1719
Q54.8906 44.3438 54.8906 33.0156" id="DejaVuSans-6e"/>
      <path d="
M9.42188 75.9844
L18.4062 75.9844
L18.4062 0
L9.42188 0
z
" id="DejaVuSans-6c"/>
      <path d="
M8.5 21.5781
L8.5 54.6875
L17.4844 54.6875
L17.4844 21.9219
Q17.4844 14.1562 20.5 10.2656
Q23.5312 6.39062 29.5938 6.39062
Q36.8594 6.39062 41.0781 11.0312
Q45.3125 15.6719 45.3125 23.6875
L45.3125 54.6875
L54.2969 54.6875
L54.2969 0
L45.3125 0
L45.3125 8.40625
Q42.0469 3.42188 37.7188 1
Q33.4062 -1.42188 27.6875 -1.42188
Q18.2656 -1.42188 13.375 4.4375
Q8.5 10.2969 8.5 21.5781
M31.1094 56
z
" id="DejaVuSans-75"/>
      <path d="
M53.5156 70.5156
L53.5156 60.8906
Q47.9062 63.5781 42.9219 64.8906
Q37.9375 66.2188 33.2969 66.2188
Q25.25 66.2188 20.875 63.0938
Q16.5 59.9688 16.5 54.2031
Q16.5 49.3594 19.4062 46.8906
Q22.3125 44.4375 30.4219 42.9219
L36.375 41.7031
Q47.4062 39.5938 52.6562 34.2969
Q57.9062 29 57.9062 20.125
Q57.9062 9.51562 50.7969 4.04688
Q43.7031 -1.42188 29.9844 -1.42188
Q24.8125 -1.42188 18.9688 -0.25
Q13.1406 0.921875 6.89062 3.21875
L6.89062 13.375
Q12.8906 10.0156 18.6562 8.29688
Q24.4219 6.59375 29.9844 6.59375
Q38.4219 6.59375 43.0156 9.90625
Q47.6094 13.2344 47.6094 19.3906
Q47.6094 24.75 44.3125 27.7812
Q41.0156 30.8125 33.5 32.3281
L27.4844 33.5
Q16.4531 35.6875 11.5156 40.375
Q6.59375 45.0625 6.59375 53.4219
Q6.59375 63.0938 13.4062 68.6562
Q20.2188 74.2188 32.1719 74.2188
Q37.3125 74.2188 42.625 73.2812
Q47.9531 72.3594 53.5156 70.5156" id="DejaVuSans-53"/>
      <path d="
M45.4062 27.9844
Q45.4062 37.75 41.375 43.1094
Q37.3594 48.4844 30.0781 48.4844
Q22.8594 48.4844 18.8281 43.1094
Q14.7969 37.75 14.7969 27.9844
Q14.7969 18.2656 18.8281 12.8906
Q22.8594 7.51562 30.0781 7.51562
Q37.3594 7.51562 41.375 12.8906
Q45.4062 18.2656 45.4062 27.9844
M54.3906 6.78125
Q54.3906 -7.17188 48.1875 -13.9844
Q42 -20.7969 29.2031 -20.7969
Q24.4688 -20.7969 20.2656 -20.0938
Q16.0625 -19.3906 12.1094 -17.9219
L12.1094 -9.1875
Q16.0625 -11.3281 19.9219 -12.3438
Q23.7812 -13.375 27.7812 -13.375
Q36.625 -13.375 41.0156 -8.76562
Q45.4062 -4.15625 45.4062 5.17188
L45.4062 9.625
Q42.625 4.78125 38.2812 2.39062
Q33.9375 0 27.875 0
Q17.8281 0 11.6719 7.65625
Q5.51562 15.3281 5.51562 27.9844
Q5.51562 40.6719 11.6719 48.3281
Q17.8281 56 27.875 56
Q33.9375 56 38.2812 53.6094
Q42.625 51.2188 45.4062 46.3906
L45.4062 54.6875
L54.3906 54.6875
z
" id="DejaVuSans-67"/>
      <path d="
M2.98438 54.6875
L12.5 54.6875
L29.5938 8.79688
L46.6875 54.6875
L56.2031 54.6875
L35.6875 0
L23.4844 0
z
" id="DejaVuSans-76"/>
      <path d="
M34.2812 27.4844
Q23.3906 27.4844 19.1875 25
Q14.9844 22.5156 14.9844 16.5
Q14.9844 11.7188 18.1406 8.90625
Q21.2969 6.10938 26.7031 6.10938
Q34.1875 6.10938 38.7031 11.4062
Q43.2188 16.7031 43.2188 25.4844
L43.2188 27.4844
z

M52.2031 31.2031
L52.2031 0
L43.2188 0
L43.2188 8.29688
Q40.1406 3.32812 35.5469 0.953125
Q30.9531 -1.42188 24.3125 -1.42188
Q15.9219 -1.42188 10.9531 3.29688
Q6 8.01562 6 15.9219
Q6 25.1406 12.1719 29.8281
Q18.3594 34.5156 30.6094 34.5156
L43.2188 34.5156
L43.2188 35.4062
Q43.2188 41.6094 39.1406 45
Q35.0625 48.3906 27.6875 48.3906
Q23 48.3906 18.5469 47.2656
Q14.1094 46.1406 10.0156 43.8906
L10.0156 52.2031
Q14.9375 54.1094 19.5781 55.0469
Q24.2188 56 28.6094 56
Q40.4844 56 46.3438 49.8438
Q52.2031 43.7031 52.2031 31.2031" id="DejaVuSans-61"/>
     </defs>
     <g transform="translate(107.01 220.9078125)rotate(-90.0)scale(0.12 -0.12)">
      <use xlink:href="#DejaVuSans-53"/>
      <use x="63.4765625" xlink:href="#DejaVuSans-69"/>
      <use x="91.259765625" xlink:href="#DejaVuSans-67"/>
      <use x="154.736328125" xlink:href="#DejaVuSans-6e"/>
      <use x="218.115234375" xlink:href="#DejaVuSans-61"/>
      <use x="279.39453125" xlink:href="#DejaVuSans-6c"/>
      <use x="307.177734375" xlink:href="#DejaVuSans-20"/>
      <use x="338.96484375" xlink:href="#DejaVuSans-76"/>
      <use x="398.14453125" xlink:href="#DejaVuSans-61"/>
      <use x="459.423828125" xlink:href="#DejaVuSans-6c"/>
      <use x="487.20703125" xlink:href="#DejaVuSans-75"/>
      <use x="550.5859375" xlink:href="#DejaVuSans-65"/>
     </g>
    </g>
   </g>
   <g id="patch_3">
    <path d="
M136.125 36.9
L980.1 36.9" style="fill:none;stroke:#000000;"/>
   </g>
   <g id="patch_4">
    <path d="
M980.1 332.1
L980.1 36.9" style="fill:none;stroke:#000000;"/>
   </g>
   <g id="patch_5">
    <path d="
M136.125 332.1
L980.1 332.1" style="fill:none;stroke:#000000;"/>
   </g>
   <g id="patch_6">
    <path d="
M136.125 332.1
L136.125 36.9" style="fill:none;stroke:#000000;"/>
   </g>
   <g id="text_15">
    <!-- One line of an APT frame (gradient and random video data) -->
    <defs>
     <path d="
M39.4062 66.2188
Q28.6562 66.2188 22.3281 58.2031
Q16.0156 50.2031 16.0156 36.375
Q16.0156 22.6094 22.3281 14.5938
Q28.6562 6.59375 39.4062 6.59375
Q50.1406 6.59375 56.4219 14.5938
Q62.7031 22.6094 62.7031 36.375
Q62.7031 50.2031 56.4219 58.2031
Q50.1406 66.2188 39.4062 66.2188
M39.4062 74.2188
Q54.7344 74.2188 63.9062 63.9375
Q73.0938 53.6562 73.0938 36.375
Q73.0938 19.1406 63.9062 8.85938
Q54.7344 -1.42188 39.4062 -1.42188
Q24.0312 -1.42188 14.8125 8.82812
Q5.60938 19.0938 5.60938 36.375
Q5.60938 53.6562 14.8125 63.9375
Q24.0312 74.2188 39.4062 74.2188" id="DejaVuSans-4f"/>
     <path d="
M8.01562 75.875
L15.8281 75.875
Q23.1406 64.3594 26.7812 53.3125
Q30.4219 42.2812 30.4219 31.3906
Q30.4219 20.4531 26.7812 9.375
Q23.1406 -1.70312 15.8281 -13.1875
L8.01562 -13.1875
Q14.5 -2 17.7031 9.0625
Q20.9062 20.125 20.9062 31.3906
Q20.9062 42.6719 17.7031 53.6562
Q14.5 64.6562 8.01562 75.875" id="DejaVuSans-29"/>
     <path d="
M30.6094 48.3906
Q23.3906 48.3906 19.1875 42.75
Q14.9844 37.1094 14.9844 27.2969
Q14.9844 17.4844 19.1562 11.8438
Q23.3438 6.20312 30.6094 6.20312
Q37.7969 6.20312 41.9844 11.8594
Q46.1875 17.5312 46.1875 27.2969
Q46.1875 37.0156 41.9844 42.7031
Q37.7969 48.3906 30.6094 48.3906
M30.6094 56
Q42.3281 56 49.0156 48.375
Q55.7188 40.7656 55.7188 27.2969
Q55.7188 13.875 49.0156 6.21875
Q42.3281 -1.42188 30.6094 -1.42188
Q18.8438 -1.42188 12.1719 6.21875
Q5.51562 13.875 5.51562 27.2969
Q5.51562 40.7656 12.1719 48.375
Q18.8438 56 30.6094 56" id="DejaVuSans-6f"/>
     <path d="
M41.1094 46.2969
Q39.5938 47.1719 37.8125 47.5781
Q36.0312 48 33.8906 48
Q26.2656 48 22.1875 43.0469
Q18.1094 38.0938 18.1094 28.8125
L18.1094 0
L9.07812 0
L9.07812 54.6875
L18.1094 54.6875
L18.1094 46.1875
Q20.9531 51.1719 25.4844 53.5781
Q30.0312 56 36.5312 56
Q37.4531 56 38.5781 55.875
Q39.7031 55.7656 41.0625 55.5156
z
" id="DejaVuSans-72"/>
     <path d="
M34.1875 63.1875
L20.7969 26.9062
L47.6094 26.9062
z

M28.6094 72.9062
L39.7969 72.9062
L67.5781 0
L57.3281 0
L50.6875 18.7031
L17.8281 18.7031
L11.1875 0
L0.78125 0
z
" id="DejaVuSans-41"/>
     <path d="
M37.1094 75.9844
L37.1094 68.5
L28.5156 68.5
Q23.6875 68.5 21.7969 66.5469
Q19.9219 64.5938 19.9219 59.5156
L19.9219 54.6875
L34.7188 54.6875
L34.7188 47.7031
L19.9219 47.7031
L19.9219 0
L10.8906 0
L10.8906 47.7031
L2.29688 47.7031
L2.29688 54.6875
L10.8906 54.6875
L10.8906 58.5
Q10.8906 67.625 15.1406 71.7969
Q19.3906 75.9844 28.6094 75.9844
z
" id="DejaVuSans-66"/>
     <path d="
M31 75.875
Q24.4688 64.6562 21.2812 53.6562
Q18.1094 42.6719 18.1094 31.3906
Q18.1094 20.125 21.3125 9.0625
Q24.5156 -2 31 -13.1875
L23.1875 -13.1875
Q15.875 -1.70312 12.2344 9.375
Q8.59375 20.4531 8.59375 31.3906
Q8.59375 42.2812 12.2031 53.3125
Q15.8281 64.3594 23.1875 75.875
z
" id="DejaVuSans-28"/>
     <path d="
M19.6719 64.7969
L19.6719 37.4062
L32.0781 37.4062
Q38.9688 37.4062 42.7188 40.9688
Q46.4844 44.5312 46.4844 51.125
Q46.4844 57.6719 42.7188 61.2344
Q38.9688 64.7969 32.0781 64.7969
z

M9.8125 72.9062
L32.0781 72.9062
Q44.3438 72.9062 50.6094 67.3594
Q56.8906 61.8125 56.8906 51.125
Q56.8906 40.3281 50.6094 34.8125
Q44.3438 29.2969 32.0781 29.2969
L19.6719 29.2969
L19.6719 0
L9.8125 0
z
" id="DejaVuSans-50"/>
     <path d="
M45.4062 46.3906
L45.4062 75.9844
L54.3906 75.9844
L54.3906 0
L45.4062 0
L45.4062 8.20312
Q42.5781 3.32812 38.25 0.953125
Q33.9375 -1.42188 27.875 -1.42188
Q17.9688 -1.42188 11.7344 6.48438
Q5.51562 14.4062 5.51562 27.2969
Q5.51562 40.1875 11.7344 48.0938
Q17.9688 56 27.875 56
Q33.9375 56 38.25 53.625
Q42.5781 51.2656 45.4062 46.3906
M14.7969 27.2969
Q14.7969 17.3906 18.875 11.75
Q22.9531 6.10938 30.0781 6.10938
Q37.2031 6.10938 41.2969 11.75
Q45.4062 17.3906 45.4062 27.2969
Q45.4062 37.2031 41.2969 42.8438
Q37.2031 48.4844 30.0781 48.4844
Q22.9531 48.4844 18.875 42.8438
Q14.7969 37.2031 14.7969 27.2969" id="DejaVuSans-64"/>
     <path d="
M-0.296875 72.9062
L61.375 72.9062
L61.375 64.5938
L35.5 64.5938
L35.5 0
L25.5938 0
L25.5938 64.5938
L-0.296875 64.5938
z
" id="DejaVuSans-54"/>
    </defs>
    <g transform="translate(343.958625 31.9)scale(0.144 -0.144)">
     <use xlink:href="#DejaVuSans-4f"/>
     <use x="78.7109375" xlink:href="#DejaVuSans-6e"/>
     <use x="142.08984375" xlink:href="#DejaVuSans-65"/>
     <use x="203.61328125" xlink:href="#DejaVuSans-20"/>
     <use x="235.400390625" xlink:href="#DejaVuSans-6c"/>
     <use x="263.18359375" xlink:href="#DejaVuSans-69"/>
     <use x="290.966796875" xlink:href="#DejaVuSans-6e"/>
     <use x="354.345703125" xlink:href="#DejaVuSans-65"/>
     <use x="415.869140625" xlink:href="#DejaVuSans-20"/>
     <use x="447.65625" xlink:href="#DejaVuSans-6f"/>
     <use x="508.837890625" xlink:href="#DejaVuSans-66"/>
     <use x="544.04296875" xlink:href="#DejaVuSans-20"/>
     <use x="575.830078125" xlink:href="#DejaVuSans-61"/>
     <use x="637.109375" xlink:href="#DejaVuSans-6e"/>
     <use x="700.48828125" xlink:href="#DejaVuSans-20"/>
     <use x="732.275390625" xlink:href="#DejaVuSans-41"/>
     <use x="800.68359375" xlink:href="#DejaVuSans-50"/>
     <use x="860.986328125" xlink:href="#DejaVuSans-54"/>
     <use x="922.0703125" xlink:href="#DejaVuSans-20"/>
     <use x="953.857421875" xlink:href="#DejaVuSans-66"/>
     <use x="989.0625" xlink:href="#DejaVuSans-72"/>
     <use x="1030.17578125" xlink:href="#DejaVuSans-61"/>
     <use x="1091.45507812" xlink:href="#DejaVuSans-6d"/>
     <use x="1188.8671875" xlink:href="#DejaVuSans-65"/>
     <use x="1250.390625" xlink:href="#DejaVuSans-20"/>
     <use x="1282.17773438" xlink:href="#DejaVuSans-28"/>
     <use x="1321.19140625" xlink:href="#DejaVuSans-67"/>
     <use x="1384.66796875" xlink:href="#DejaVuSans-72"/>
     <use x="1425.78125" xlink:href="#DejaVuSans-61"/>
     <use x="1487.06054688" xlink:href="#DejaVuSans-64"/>
     <use x="1550.53710938" xlink:href="#DejaVuSans-69"/>
     <use x="1578.3203125" xlink:href="#DejaVuSans-65"/>
     <use x="1639.84375" xlink:href="#DejaVuSans-6e"/>
     <use x="1703.22265625" xlink:href="#DejaVuSans-74"/>
     <use x="1742.43164062" xlink:href="#DejaVuSans-20"/>
     <use x="1774.21875" xlink:href="#DejaVuSans-61"/>
     <use x="1835.49804688" xlink:href="#DejaVuSans-6e"/>
     <use x="1898.87695312" xlink:href="#DejaVuSans-64"/>
     <use x="1962.35351562" xlink:href="#DejaVuSans-20"/>
     <use x="1994.140625" xlink:href="#DejaVuSans-72"/>
     <use x="2035.25390625" xlink:href="#DejaVuSans-61"/>
     <use x="2096.53320312" xlink:href="#DejaVuSans-6e"/>
     <use x="2159.91210938" xlink:href="#DejaVuSans-64"/>
     <use x="2223.38867188" xlink:href="#DejaVuSans-6f"/>
     <use x="2284.5703125" xlink:href="#DejaVuSans-6d"/>
     <use x="2381.98242188" xlink:href="#DejaVuSans-20"/>
     <use x="2413.76953125" xlink:href="#DejaVuSans-76"/>
     <use x="2472.94921875" xlink:href="#DejaVuSans-69"/>
     <use x="2500.73242188" xlink:href="#DejaVuSans-64"/>
     <use x="2564.20898438" xlink:href="#DejaVuSans-65"/>
     <use x="2625.73242188" xlink:href="#DejaVuSans-6f"/>
     <use x="2686.9140625" xlink:href="#DejaVuSans-20"/>
     <use x="2718.70117188" xlink:href="#DejaVuSans-64"/>
     <use x="2782.17773438" xlink:href="#DejaVuSans-61"/>
     <use x="2843.45703125" xlink:href="#DejaVuSans-74"/>
     <use x="2882.66601562" xlink:href="#DejaVuSans-61"/>
     <use x="2943.9453125" xlink:href="#DejaVuSans-29"/>
    </g>
   </g>
  </g>
 </g>
 <defs>
  <clipPath id="pdae6ac7bf1">
   <rect height="295.2" width="843.975" x="136.125" y="36.9"/>
  </clipPath>
 </defs>
</svg>
